REM COMMENT "Generated by IcecastMetadataRecorder https://github.com/eshaz/icecast-metadata-js"
REM BR "16"
REM METAINT "64"
REM DATE "2020-07-29T21:16:11.222Z"
TITLE "isics-all"
FILE "isics-all.mp3" WAVE
  TRACK 1 AUDIO
    TITLE "2020-07-29T21:25:23.390Z TO:1102 Polk County - Westcom Law Enforcement 2 FROM:1377"
    INDEX 01 09:12:13
  TRACK 2 AUDIO
    TITLE "2020-07-29T21:25:29.654Z TO:1101 Polk County - Westcom Law Enforcement 1 FROM:1381"
    INDEX 01 09:18:32
  TRACK 3 AUDIO
    TITLE "2020-07-29T21:25:33.830Z TO:1102 Polk County - Westcom Law Enforcement 2 FROM:1006"
    INDEX 01 09:22:46
  TRACK 4 AUDIO
    TITLE "2020-07-29T21:25:38.726Z TO:1102 Polk County - Westcom Law Enforcement 2 FROM:1377"
    INDEX 01 09:27:38
  TRACK 5 AUDIO
    TITLE "2020-07-29T21:25:44.342Z TO:1102 Polk County - Westcom Law Enforcement 2 FROM:UNKNOWN"
    INDEX 01 09:33:09
  TRACK 6 AUDIO
    TITLE "2020-07-29T21:25:45.062Z TO:7300 Department of Transportation - District 1 Highway Helper - Des Moines Area FROM:14948"
    INDEX 01 09:33:63
  TRACK 7 AUDIO
    TITLE "2020-07-29T21:25:47.150Z TO:1101 Polk County - Westcom Law Enforcement 1 FROM:1004"
    INDEX 01 09:35:70
  TRACK 8 AUDIO
    TITLE "2020-07-29T21:25:49.238Z TO:1102 Polk County - Westcom Law Enforcement 2 FROM:1377"
    INDEX 01 09:38:01
  TRACK 9 AUDIO
    TITLE "2020-07-29T21:25:53.414Z TO:1102 Polk County - Westcom Law Enforcement 2 FROM:UNKNOWN"
    INDEX 01 09:42:14
  TRACK 10 AUDIO
    TITLE "END"
    INDEX 01 09:43:47